<svg viewBox="235 78 132 130" xmlns="http://www.w3.org/2000/svg">
    <path fill="currentColor" d="M 355.554 182.481 L 347.684 182.481 L 347.684 166.331 C 347.684 166.021 347.554 165.731 347.344 165.521 C 347.134 165.311 346.844 165.181 346.534 165.181 L 307.954 165.181 L 307.954 182.481 C 307.954 182.481 291.754 182.481 293.754 182.481 L 300.064 182.481 L 300.064 165.181 L 261.494 165.181 C 261.184 165.181 260.894 165.311 260.684 165.521 C 260.474 165.731 260.344 166.021 260.344 166.331 L 260.344 182.481 L 252.484 182.481 L 252.484 166.331 C 252.484 163.851 253.494 161.591 255.124 159.961 C 256.754 158.331 259.004 157.321 261.494 157.321 L 300.074 157.321 L 300.074 125.871 L 307.964 125.871 L 307.964 157.321 L 346.544 157.321 C 349.024 157.321 351.284 158.331 352.914 159.961 C 354.544 161.591 355.554 163.851 355.554 166.331 L 355.554 182.481 Z" />
    <g transform="matrix(1.567823052406311, 0, 0, 1.567823052406311, -77.63685607910156, -74.0210952758789)">
        <path d="M 229.231 108.249 L 229.231 102.946 C 229.231 101.319 230.55 100 232.177 100 L 237.767 100 C 238.349 100 238.917 100.172 239.401 100.495 L 241.452 101.862 C 241.936 102.184 242.505 102.357 243.086 102.357 L 254.568 102.357 C 256.195 102.357 257.515 103.676 257.515 105.303 L 257.515 108.249" fill="none" stroke="currentColor" stroke-linecap="round" stroke-linejoin="round" stroke-width="3.5px"/>
        <path d="M 259.864 110.794 L 258.669 122.98 C 258.669 124.605 257.353 125.923 255.728 125.926 L 231.017 125.926 C 229.392 125.923 228.076 124.605 228.076 122.98 L 226.882 110.794 C 226.772 109.422 227.855 108.249 229.231 108.249 L 257.522 108.249 C 258.895 108.253 259.973 109.425 259.864 110.794 Z" fill="none" stroke="currentColor" stroke-linecap="round" stroke-linejoin="round" stroke-width="3.5px"/>
    </g>
    <g transform="matrix(0.9070730209350586, 0, 0, 0.9070730209350586, 33.072551727294936, 91.0535888671875)">
        <path d="M 229.231 108.249 L 229.231 102.946 C 229.231 101.319 230.55 100 232.177 100 L 237.767 100 C 238.349 100 238.917 100.172 239.401 100.495 L 241.452 101.862 C 241.936 102.184 242.505 102.357 243.086 102.357 L 254.568 102.357 C 256.195 102.357 257.515 103.676 257.515 105.303 L 257.515 108.249" fill="none" stroke="currentColor" stroke-linecap="round" stroke-linejoin="round" stroke-width="3.5px"/>
        <path d="M 259.864 110.794 L 258.669 122.98 C 258.669 124.605 257.353 125.923 255.728 125.926 L 231.017 125.926 C 229.392 125.923 228.076 124.605 228.076 122.98 L 226.882 110.794 C 226.772 109.422 227.855 108.249 229.231 108.249 L 257.522 108.249 C 258.895 108.253 259.973 109.425 259.864 110.794 Z" fill="none" stroke="currentColor" stroke-linecap="round" stroke-linejoin="round" stroke-width="3.5px"/>
    </g>
    <g transform="matrix(0.9070730209350586, 0, 0, 0.9070730209350586, 80.53983306884767, 91.13215637207031)">
        <path d="M 229.231 108.249 L 229.231 102.946 C 229.231 101.319 230.55 100 232.177 100 L 237.767 100 C 238.349 100 238.917 100.172 239.401 100.495 L 241.452 101.862 C 241.936 102.184 242.505 102.357 243.086 102.357 L 254.568 102.357 C 256.195 102.357 257.515 103.676 257.515 105.303 L 257.515 108.249" fill="none" stroke="currentColor" stroke-linecap="round" stroke-linejoin="round" stroke-width="3.5px"/>
        <path d="M 259.864 110.794 L 258.669 122.98 C 258.669 124.605 257.353 125.923 255.728 125.926 L 231.017 125.926 C 229.392 125.923 228.076 124.605 228.076 122.98 L 226.882 110.794 C 226.772 109.422 227.855 108.249 229.231 108.249 L 257.522 108.249 C 258.895 108.253 259.973 109.425 259.864 110.794 Z" fill="none" stroke="currentColor" stroke-linecap="round" stroke-linejoin="round" stroke-width="3.5px"/>
    </g>
    <g transform="matrix(0.9070730209350586, 0, 0, 0.9070730209350586, 128.18548583984375, 91.0909194946289)">
        <path d="M 229.231 108.249 L 229.231 102.946 C 229.231 101.319 230.55 100 232.177 100 L 237.767 100 C 238.349 100 238.917 100.172 239.401 100.495 L 241.452 101.862 C 241.936 102.184 242.505 102.357 243.086 102.357 L 254.568 102.357 C 256.195 102.357 257.515 103.676 257.515 105.303 L 257.515 108.249" fill="none" stroke="currentColor" stroke-linecap="round" stroke-linejoin="round" stroke-width="3.5px"/>
        <path d="M 259.864 110.794 L 258.669 122.98 C 258.669 124.605 257.353 125.923 255.728 125.926 L 231.017 125.926 C 229.392 125.923 228.076 124.605 228.076 122.98 L 226.882 110.794 C 226.772 109.422 227.855 108.249 229.231 108.249 L 257.522 108.249 C 258.895 108.253 259.973 109.425 259.864 110.794 Z" fill="none" stroke="currentColor" stroke-linecap="round" stroke-linejoin="round" stroke-width="3.5px"/>
    </g>
</svg>